<?xml version="1.0" encoding="UTF-8" standalone="no"?>
<!-- Created with Inkscape (http://www.inkscape.org/) -->
<svg id="svg2" xmlns:rdf="http://www.w3.org/1999/02/22-rdf-syntax-ns#" xmlns="http://www.w3.org/2000/svg" viewBox="0 0 200.44 200.44" version="1.1" xmlns:cc="http://creativecommons.org/ns#" xmlns:dc="http://purl.org/dc/elements/1.1/">
 <metadata id="metadata7">
  <rdf:RDF>
   <cc:Work rdf:about="">
    <dc:format>image/svg+xml</dc:format>
    <dc:type rdf:resource="http://purl.org/dc/dcmitype/StillImage"/>
    <dc:title/>
   </cc:Work>
  </rdf:RDF>
 </metadata>
 <g id="layer1" stroke-linejoin="round" transform="translate(-137.62 -295.75)" stroke="#000" stroke-linecap="round">
  <rect id="rect2985" ry="26.822" height="190.43" width="190.43" y="300.74" x="142.61" stroke-width="10" fill="none"/>
  <g>
   <path id="path3024" d="m190 675.22a22.857 22.857 0 0 1 -22.86 22.86 22.857 22.857 0 0 1 -22.85 -22.86 22.857 22.857 0 0 1 22.85 -22.86 22.857 22.857 0 0 1 22.86 22.86z" transform="matrix(.85627 0 0 -.85627 49.506 1024.4)"/>
   <path id="path3024-47" d="m190 675.22a22.857 22.857 0 0 1 -22.86 22.86 22.857 22.857 0 0 1 -22.85 -22.86 22.857 22.857 0 0 1 22.85 -22.86 22.857 22.857 0 0 1 22.86 22.86z" transform="matrix(.85627 0 0 -.85627 49.506 924.36)"/>
   <path id="path3024-9" d="m190 675.22a22.857 22.857 0 0 1 -22.86 22.86 22.857 22.857 0 0 1 -22.85 -22.86 22.857 22.857 0 0 1 22.85 -22.86 22.857 22.857 0 0 1 22.86 22.86z" transform="matrix(.85627 0 0 -.85627 139.51 924.36)"/>
   <path id="path3024-0" d="m190 675.22a22.857 22.857 0 0 1 -22.86 22.86 22.857 22.857 0 0 1 -22.85 -22.86 22.857 22.857 0 0 1 22.85 -22.86 22.857 22.857 0 0 1 22.86 22.86z" transform="matrix(.85627 0 0 -.85627 139.51 1024.4)"/>
  </g>
 </g>
</svg>
